<svg width="30" height="30" viewBox="0 0 30 30" fill="none" xmlns="http://www.w3.org/2000/svg">
<g clip-path="url(#clip0)">
<path d="M26.8594 3.76758C23.4727 0.919924 18.2402 1.34766 15 4.64649C11.7598 1.34766 6.52735 0.914065 3.14063 3.76758C-1.26562 7.47657 -0.621087 13.5234 2.51954 16.7285L12.7969 27.1992C13.3828 27.7969 14.168 28.1309 15 28.1309C15.8379 28.1309 16.6172 27.8027 17.2031 27.2051L27.4805 16.7344C30.6152 13.5293 31.2715 7.48242 26.8594 3.76758ZM25.4766 14.7539L15.1992 25.2246C15.0586 25.3652 14.9414 25.3652 14.8008 25.2246L4.52344 14.7539C2.38477 12.5742 1.95118 8.44922 4.95118 5.92383C7.23048 4.00781 10.7461 4.29492 12.9492 6.53906L15 8.63086L17.0508 6.53906C19.2656 4.28321 22.7813 4.00781 25.0488 5.91797C28.043 8.44336 27.5977 12.5918 25.4766 14.7539Z" fill="#FF5151"/>
</g>
<defs>
<clipPath id="clip0">
<rect width="30" height="30" fill="white"/>
</clipPath>
</defs>
</svg>
