<svg width="77" height="69" viewBox="0 0 77 69" fill="none" xmlns="http://www.w3.org/2000/svg">
<g clip-path="url(#clip0)">
<path d="M70.5414 4.54565H6.77237C3.23703 4.54565 0.379517 7.39377 0.379517 10.9042V57.5338C0.379517 61.0443 3.23703 63.8924 6.77237 63.8924H70.5414C74.0768 63.8924 76.9343 61.0443 76.9343 57.5338V10.9042C76.9343 7.39377 74.0768 4.54565 70.5414 4.54565ZM7.56982 10.9042H69.744C70.1826 10.9042 70.5414 11.2619 70.5414 11.6991V17.2628H6.77237V11.6991C6.77237 11.2619 7.13122 10.9042 7.56982 10.9042ZM69.744 57.5338H7.56982C7.13122 57.5338 6.77237 57.1761 6.77237 56.739V34.219H70.5414V56.739C70.5414 57.1761 70.1826 57.5338 69.744 57.5338ZM25.8978 44.2868V49.5856C25.8978 50.4599 25.1801 51.1752 24.3029 51.1752H14.7335C13.8563 51.1752 13.1386 50.4599 13.1386 49.5856V44.2868C13.1386 43.4125 13.8563 42.6971 14.7335 42.6971H24.3029C25.1801 42.6971 25.8978 43.4125 25.8978 44.2868ZM51.416 44.2868V49.5856C51.416 50.4599 50.6983 51.1752 49.8211 51.1752H31.7457C30.8685 51.1752 30.1508 50.4599 30.1508 49.5856V44.2868C30.1508 43.4125 30.8685 42.6971 31.7457 42.6971H49.8211C50.6983 42.6971 51.416 43.4125 51.416 44.2868Z" fill="#477BFF"/>
</g>
<defs>
<clipPath id="clip0">
<rect width="76.5547" height="67.8248" fill="white" transform="translate(0.379517 0.306641)"/>
</clipPath>
</defs>
</svg>
