<svg width="50" height="50" viewBox="0 0 50 50" fill="none" xmlns="http://www.w3.org/2000/svg">
<path d="M25 19.0469C23.8227 19.0473 22.6719 19.3968 21.6932 20.0512C20.7145 20.7056 19.9519 21.6356 19.5016 22.7234C19.0514 23.8112 18.9338 25.0081 19.1638 26.1628C19.3937 27.3174 19.9609 28.3779 20.7935 29.2103C21.6262 30.0426 22.6869 30.6094 23.8417 30.8389C24.9964 31.0684 26.1932 30.9504 27.2809 30.4998C28.3686 30.0491 29.2982 29.2861 29.9522 28.3071C30.6063 27.3282 30.9554 26.1773 30.9554 25C30.9542 23.4211 30.3263 21.9073 29.2096 20.791C28.093 19.6748 26.5789 19.0475 25 19.0469ZM38.9185 14.471C38.6155 13.7029 38.1578 13.0054 37.574 12.4215C36.9902 11.8377 36.2926 11.3801 35.5246 11.077C33.1808 10.1518 27.6004 10.3594 25 10.3594C22.3996 10.3594 16.8248 10.144 14.4743 11.077C13.7063 11.3801 13.0087 11.8377 12.4249 12.4215C11.8411 13.0054 11.3834 13.7029 11.0804 14.471C10.1562 16.8147 10.3627 22.4007 10.3627 24.9989C10.3627 27.5971 10.1562 33.1763 11.0848 35.5279C11.3879 36.2959 11.8455 36.9935 12.4294 37.5773C13.0132 38.1612 13.7108 38.6188 14.4788 38.9219C16.8225 39.8471 22.4029 39.6395 25.0045 39.6395C27.606 39.6395 33.1786 39.8549 35.529 38.9219C36.2971 38.6188 36.9946 38.1612 37.5785 37.5773C38.1623 36.9935 38.6199 36.2959 38.923 35.5279C39.8549 33.1842 39.6406 27.5982 39.6406 25C39.6406 22.4018 39.8549 16.8237 38.923 14.4721L38.9185 14.471ZM25 34.1518C23.1899 34.1518 21.4205 33.615 19.9155 32.6094C18.4105 31.6038 17.2375 30.1745 16.5449 28.5022C15.8522 26.83 15.6709 24.9898 16.0241 23.2146C16.3772 21.4393 17.2488 19.8086 18.5287 18.5287C19.8086 17.2488 21.4393 16.3772 23.2146 16.0241C24.9898 15.6709 26.83 15.8522 28.5022 16.5449C30.1745 17.2375 31.6038 18.4105 32.6094 19.9155C33.615 21.4205 34.1518 23.1899 34.1518 25C34.1533 26.2022 33.9175 27.393 33.4581 28.504C32.9987 29.615 32.3247 30.6245 31.4746 31.4746C30.6245 32.3247 29.615 32.9987 28.504 33.4581C27.393 33.9175 26.2022 34.1533 25 34.1518ZM34.529 17.6004C34.1065 17.6007 33.6934 17.4756 33.3419 17.241C32.9905 17.0064 32.7165 16.6728 32.5547 16.2825C32.3928 15.8922 32.3504 15.4627 32.4327 15.0482C32.5149 14.6338 32.7183 14.253 33.017 13.9542C33.3157 13.6553 33.6963 13.4518 34.1107 13.3693C34.5252 13.2867 34.9547 13.329 35.3451 13.4906C35.7355 13.6523 36.0692 13.9261 36.304 14.2774C36.5387 14.6287 36.6641 15.0417 36.6641 15.4643C36.6652 15.7449 36.611 16.0229 36.5045 16.2825C36.3979 16.5421 36.2412 16.7781 36.0433 16.977C35.8453 17.1759 35.6101 17.3337 35.351 17.4415C35.0919 17.5492 34.8141 17.6048 34.5335 17.6049L34.529 17.6004ZM44.6429 0H5.35714C3.93634 0 2.57373 0.564412 1.56907 1.56907C0.564412 2.57373 0 3.93634 0 5.35714L0 44.6429C0 46.0637 0.564412 47.4263 1.56907 48.4309C2.57373 49.4356 3.93634 50 5.35714 50H44.6429C46.0637 50 47.4263 49.4356 48.4309 48.4309C49.4356 47.4263 50 46.0637 50 44.6429V5.35714C50 3.93634 49.4356 2.57373 48.4309 1.56907C47.4263 0.564412 46.0637 0 44.6429 0ZM42.7321 32.3661C42.5882 35.2266 41.9353 37.7612 39.8471 39.8438C37.7589 41.9263 35.2266 42.5926 32.3694 42.7288C29.4219 42.8951 20.5848 42.8951 17.6373 42.7288C14.7768 42.5848 12.2511 41.9308 10.1596 39.8438C8.06808 37.7567 7.41071 35.221 7.27455 32.3661C7.10826 29.4174 7.10826 20.5792 7.27455 17.6339C7.41853 14.7734 8.06362 12.2388 10.1596 10.1562C12.2556 8.07366 14.7879 7.41518 17.6373 7.27902C20.5848 7.11272 29.4219 7.11272 32.3694 7.27902C35.2299 7.42299 37.7634 8.07701 39.8471 10.1641C41.9308 12.2511 42.596 14.7868 42.7321 17.6473C42.8984 20.5848 42.8984 29.4152 42.7321 32.3661Z" fill="white"/>
</svg>
