<svg width="50" height="50" viewBox="0 0 50 50" fill="none" xmlns="http://www.w3.org/2000/svg">
<path d="M44.6429 0H5.35714C3.93634 0 2.57373 0.564412 1.56907 1.56907C0.564412 2.57373 0 3.93634 0 5.35714L0 44.6429C0 46.0637 0.564412 47.4263 1.56907 48.4309C2.57373 49.4356 3.93634 50 5.35714 50H20.6752V33.0011H13.644V25H20.6752V18.9018C20.6752 11.9654 24.8047 8.13393 31.1295 8.13393C34.1585 8.13393 37.3259 8.67411 37.3259 8.67411V15.4821H33.8359C30.3973 15.4821 29.3248 17.6161 29.3248 19.8047V25H37.0011L35.7734 33.0011H29.3248V50H44.6429C46.0637 50 47.4263 49.4356 48.4309 48.4309C49.4356 47.4263 50 46.0637 50 44.6429V5.35714C50 3.93634 49.4356 2.57373 48.4309 1.56907C47.4263 0.564412 46.0637 0 44.6429 0Z" fill="white"/>
</svg>
