<svg width="67" height="69" viewBox="0 0 67 69" fill="none" xmlns="http://www.w3.org/2000/svg">
<g clip-path="url(#clip0)">
<path d="M24.6574 35.3292C25.0728 37.1834 23.0991 38.5926 21.5638 37.6035L16.3277 34.2314L9.78949 45.0148C8.08202 47.8304 10.0556 51.5034 13.2756 51.5034H19.958C20.8098 51.5034 21.5004 52.2152 21.5004 53.0931V58.3919C21.5004 59.2698 20.8098 59.9815 19.958 59.9815H13.2889C3.60575 59.9815 -2.30278 48.9801 2.82503 40.5243L9.35748 29.7428L4.12285 26.3717C2.57001 25.3719 2.9704 22.9326 4.74998 22.5091L18.9194 19.1378C20.0262 18.8744 21.1303 19.5856 21.3859 20.7261L24.6574 35.3292ZM37.326 11.0984L42.6331 19.8515L37.3965 23.2238C35.8476 24.221 36.2397 26.6618 38.0237 27.0864L52.1931 30.4577C53.3077 30.7226 54.4058 30.0023 54.6596 28.8694L57.9308 14.2663C58.3417 12.4324 56.3896 10.9918 54.8372 11.992L49.6074 15.36L44.3037 6.60607C39.4809 -1.34652 28.2098 -1.36481 23.376 6.60607L21.0671 10.4167C20.6159 11.1612 20.8357 12.1416 21.5581 12.6068L25.9179 15.4145C26.6403 15.8798 27.592 15.6534 28.0434 14.9089L30.352 11.1013C31.986 8.40674 35.747 8.49483 37.326 11.0984ZM64.854 40.5243L61.3173 34.687C60.866 33.9421 59.9142 33.7155 59.1916 34.1808L54.8392 36.9838C54.1169 37.449 53.8971 38.4297 54.3485 39.1743L57.8915 45.0178C59.5955 47.8276 57.6271 51.5036 54.4035 51.5036H42.0661V45.1475C42.0661 43.2647 39.8499 42.3149 38.5554 43.6489L28.2726 54.244C27.4693 55.0717 27.4693 56.4137 28.2726 57.2414L38.5554 67.8375C39.841 69.1628 42.0661 68.2344 42.0661 66.3387V59.9815H54.3901C64.0655 59.9815 69.986 48.9869 64.854 40.5243Z" fill="#477BFF"/>
</g>
<defs>
<clipPath id="clip0">
<rect width="65.8102" height="67.8248" fill="white" transform="translate(0.934326 0.635254)"/>
</clipPath>
</defs>
</svg>
