<svg width="50" height="50" viewBox="0 0 50 50" fill="none" xmlns="http://www.w3.org/2000/svg">
<path d="M44.6429 0H5.35714C2.39955 0 0 2.39955 0 5.35714V44.6429C0 47.6004 2.39955 50 5.35714 50H44.6429C47.6004 50 50 47.6004 50 44.6429V5.35714C50 2.39955 47.6004 0 44.6429 0ZM39.1853 17.7232C39.2076 18.0357 39.2076 18.3594 39.2076 18.6719C39.2076 28.3482 31.8415 39.4978 18.3817 39.4978C14.2299 39.4978 10.3795 38.2924 7.14286 36.2165C7.73438 36.2835 8.30357 36.3058 8.90625 36.3058C12.3326 36.3058 15.4799 35.1451 17.9911 33.1808C14.7768 33.1138 12.0759 31.0045 11.1496 28.1027C12.2768 28.2701 13.2924 28.2701 14.4531 27.9688C11.1049 27.2879 8.59375 24.3415 8.59375 20.7812V20.692C9.56473 21.2388 10.7031 21.5737 11.8973 21.6183C10.8933 20.9505 10.0703 20.0445 9.50164 18.9812C8.93299 17.9179 8.63642 16.7304 8.63839 15.5246C8.63839 14.1629 8.99554 12.9129 9.6317 11.8304C13.2366 16.2723 18.6496 19.1741 24.721 19.4866C23.683 14.5201 27.3996 10.4911 31.8638 10.4911C33.9732 10.4911 35.8705 11.3728 37.2098 12.8013C38.8616 12.4888 40.4464 11.875 41.8527 11.0379C41.3058 12.7344 40.1562 14.1629 38.6384 15.067C40.1116 14.9107 41.5402 14.4978 42.8571 13.9286C41.8638 15.3906 40.6138 16.6853 39.1853 17.7232Z" fill="white"/>
</svg>
