<svg width="86" height="69" viewBox="0 0 86 69" fill="none" xmlns="http://www.w3.org/2000/svg">
<g clip-path="url(#clip0)">
<path d="M83.7584 46.9362H81.6263V32.6162C81.6263 30.9338 80.9467 29.3176 79.7473 28.1254L66.4349 14.8916C65.2356 13.6994 63.6099 13.0238 61.9175 13.0238H56.0409V6.66522C56.0409 3.15475 53.1758 0.306641 49.6445 0.306641H15.5307C11.9993 0.306641 9.1343 3.15475 9.1343 6.66522V13.0238H1.67189C1.08556 13.0238 0.605835 13.5007 0.605835 14.0836V16.2031C0.605835 16.786 1.08556 17.2628 1.67189 17.2628H37.9179C38.5042 17.2628 38.9839 17.7397 38.9839 18.3226V20.4421C38.9839 21.025 38.5042 21.5019 37.9179 21.5019H5.93613C5.34979 21.5019 4.87007 21.9788 4.87007 22.5617V24.6812C4.87007 25.2641 5.34979 25.7409 5.93613 25.7409H33.6536C34.24 25.7409 34.7197 26.2178 34.7197 26.8007V28.9202C34.7197 29.5031 34.24 29.98 33.6536 29.98H1.67189C1.08556 29.98 0.605835 30.4569 0.605835 31.0398V33.1593C0.605835 33.7422 1.08556 34.2191 1.67189 34.2191H29.3894C29.9757 34.2191 30.4555 34.6959 30.4555 35.2788V37.3983C30.4555 37.9812 29.9757 38.4581 29.3894 38.4581H9.1343V55.4143C9.1343 62.4352 14.8644 68.1315 21.927 68.1315C28.9896 68.1315 34.7197 62.4352 34.7197 55.4143H51.7766C51.7766 62.4352 57.5067 68.1315 64.5693 68.1315C71.632 68.1315 77.362 62.4352 77.362 55.4143H83.7584C84.9311 55.4143 85.8905 54.4605 85.8905 53.2948V49.0557C85.8905 47.89 84.9311 46.9362 83.7584 46.9362ZM21.927 61.7729C18.3957 61.7729 15.5307 58.9248 15.5307 55.4143C15.5307 51.9038 18.3957 49.0557 21.927 49.0557C25.4583 49.0557 28.3234 51.9038 28.3234 55.4143C28.3234 58.9248 25.4583 61.7729 21.927 61.7729ZM64.5693 61.7729C61.038 61.7729 58.173 58.9248 58.173 55.4143C58.173 51.9038 61.038 49.0557 64.5693 49.0557C68.1007 49.0557 70.9657 51.9038 70.9657 55.4143C70.9657 58.9248 68.1007 61.7729 64.5693 61.7729ZM75.2299 34.2191H56.0409V19.3824H61.9175L75.2299 32.6162V34.2191Z" fill="#477BFF"/>
</g>
<defs>
<clipPath id="clip0">
<rect width="85.2847" height="67.8248" fill="white" transform="translate(0.605835 0.306641)"/>
</clipPath>
</defs>
</svg>
