<svg width="28" height="25" viewBox="0 0 28 25" fill="none" xmlns="http://www.w3.org/2000/svg">
<path d="M25.6725 14.7128L27.9705 4.55659C28.1364 3.82329 27.5815 3.125 26.8328 3.125H7.73928L7.29371 0.937012C7.18268 0.39165 6.70493 0 6.15071 0H1.16667C0.522326 0 0 0.524658 0 1.17188V1.95312C0 2.60034 0.522326 3.125 1.16667 3.125H4.56376L7.97859 19.8943C7.16163 20.3662 6.61111 21.2511 6.61111 22.2656C6.61111 23.7758 7.82989 25 9.33333 25C10.8368 25 12.0556 23.7758 12.0556 22.2656C12.0556 21.5003 11.7422 20.8088 11.2377 20.3125H21.4289C20.9245 20.8088 20.6111 21.5003 20.6111 22.2656C20.6111 23.7758 21.8299 25 23.3333 25C24.8368 25 26.0556 23.7758 26.0556 22.2656C26.0556 21.183 25.4291 20.2475 24.5205 19.8044L24.7886 18.6191C24.9546 17.8858 24.3997 17.1875 23.651 17.1875H10.6029L10.2847 15.625H24.5349C25.0796 15.625 25.5518 15.2464 25.6725 14.7128Z" fill="#477BFF"/>
</svg>
