<svg width="35" height="30" viewBox="0 0 35 30" fill="none" xmlns="http://www.w3.org/2000/svg">
<path d="M35 12.6562V13.5937C35 14.3704 34.3471 15 33.5417 15H33.0556L31.4688 25.7102C31.2636 27.0958 30.033 28.125 28.5815 28.125H6.41849C4.96702 28.125 3.73643 27.0958 3.53111 25.7102L1.94444 15H1.45833C0.652908 15 0 14.3704 0 13.5937V12.6562C0 11.8796 0.652908 11.25 1.45833 11.25H5.55023L12.0386 2.64719C12.6702 1.80977 13.8863 1.62455 14.7548 2.23364C15.6233 2.84272 15.8153 4.01535 15.1837 4.85283L10.3588 11.25H24.6412L19.8163 4.85278C19.1847 4.01535 19.3768 2.84266 20.2453 2.23358C21.1136 1.62449 22.3298 1.80965 22.9615 2.64713L29.4498 11.25H33.5417C34.3471 11.25 35 11.8796 35 12.6562ZM18.9583 22.9687V16.4062C18.9583 15.6296 18.3054 15 17.5 15C16.6946 15 16.0417 15.6296 16.0417 16.4062V22.9687C16.0417 23.7454 16.6946 24.375 17.5 24.375C18.3054 24.375 18.9583 23.7454 18.9583 22.9687ZM25.7639 22.9687V16.4062C25.7639 15.6296 25.111 15 24.3056 15C23.5001 15 22.8472 15.6296 22.8472 16.4062V22.9687C22.8472 23.7454 23.5001 24.375 24.3056 24.375C25.111 24.375 25.7639 23.7454 25.7639 22.9687ZM12.1528 22.9687V16.4062C12.1528 15.6296 11.4999 15 10.6944 15C9.88902 15 9.23611 15.6296 9.23611 16.4062V22.9687C9.23611 23.7454 9.88902 24.375 10.6944 24.375C11.4999 24.375 12.1528 23.7454 12.1528 22.9687Z" fill="#477BFF"/>
</svg>
