<svg width="27" height="30" viewBox="0 0 27 30" fill="none" xmlns="http://www.w3.org/2000/svg">
<path d="M18.9 17.8125C17.1703 17.8125 16.3386 18.75 13.5 18.75C10.6614 18.75 9.83571 17.8125 8.1 17.8125C3.62812 17.8125 0 21.3398 0 25.6875V27.1875C0 28.7402 1.29576 30 2.89286 30H24.1071C25.7042 30 27 28.7402 27 27.1875V25.6875C27 21.3398 23.3719 17.8125 18.9 17.8125ZM24.1071 27.1875H2.89286V25.6875C2.89286 22.8984 5.23125 20.625 8.1 20.625C8.97991 20.625 10.4083 21.5625 13.5 21.5625C16.6158 21.5625 18.0141 20.625 18.9 20.625C21.7688 20.625 24.1071 22.8984 24.1071 25.6875V27.1875ZM13.5 16.875C18.2913 16.875 22.1786 13.0957 22.1786 8.4375C22.1786 3.7793 18.2913 0 13.5 0C8.70871 0 4.82143 3.7793 4.82143 8.4375C4.82143 13.0957 8.70871 16.875 13.5 16.875ZM13.5 2.8125C16.6882 2.8125 19.2857 5.33789 19.2857 8.4375C19.2857 11.5371 16.6882 14.0625 13.5 14.0625C10.3118 14.0625 7.71429 11.5371 7.71429 8.4375C7.71429 5.33789 10.3118 2.8125 13.5 2.8125Z" fill="black"/>
</svg>
